<?xml version="1.0" encoding="UTF-8" standalone="no"?>
<svg
   xmlns:dc="http://purl.org/dc/elements/1.1/"
   xmlns:cc="http://creativecommons.org/ns#"
   xmlns:rdf="http://www.w3.org/1999/02/22-rdf-syntax-ns#"
   xmlns:svg="http://www.w3.org/2000/svg"
   xmlns="http://www.w3.org/2000/svg"
   xmlns:sodipodi="http://sodipodi.sourceforge.net/DTD/sodipodi-0.dtd"
   xmlns:inkscape="http://www.inkscape.org/namespaces/inkscape"
   id="Layer_4"
   viewBox="0 0 839 200"
   version="1.1"
   inkscape:version="0.91 r13725"
   sodipodi:docname="logo.svg">
  <metadata
     id="metadata76">
    <rdf:RDF>
      <cc:Work
         rdf:about="">
        <dc:format>image/svg+xml</dc:format>
        <dc:type
           rdf:resource="http://purl.org/dc/dcmitype/StillImage" />
      </cc:Work>
    </rdf:RDF>
  </metadata>
  <defs
     id="defs74" />
  <sodipodi:namedview
     pagecolor="#ffffff"
     bordercolor="#666666"
     borderopacity="1"
     objecttolerance="10"
     gridtolerance="10"
     guidetolerance="10"
     inkscape:pageopacity="0"
     inkscape:pageshadow="2"
     inkscape:window-width="1366"
     inkscape:window-height="716"
     id="namedview72"
     showgrid="false"
     inkscape:zoom="0.42431466"
     inkscape:cx="419.5"
     inkscape:cy="100"
     inkscape:window-x="-8"
     inkscape:window-y="-8"
     inkscape:window-maximized="1"
     inkscape:current-layer="Layer_4" />
  <style
     id="style3">.st0{fill:none;} .st1{fill:#FFC107;} .st2{fill:#0F9D58;} .st3{opacity:0.2;fill:#BF360C;enable-background:new ;} .st4{opacity:0.2;fill:#263238;enable-background:new ;} .st5{opacity:0.2;fill:#FFFFFF;enable-background:new ;} .st6{fill:url(#XMLID_126_);} .st7{fill:url(#XMLID_127_);} .st8{fill:#4285F4;} .st9{fill:#DB4437;} .st10{opacity:0.2;fill:#1A237E;enable-background:new ;} .st11{opacity:0.2;fill:#3E2723;enable-background:new ;} .st12{fill:url(#XMLID_128_);} .st13{fill:#767676;}</style>
  <g
     id="XMLID_60_">
    <g
       id="XMLID_61_">
      <g
         id="XMLID_62_">
        <path
           id="XMLID_106_"
           class="st0"
           d="M122.5 90.6L70.1 0H0l57.8 100L0 200h70.1l52.4-90.6c3.3-5.8 3.3-13 0-18.8z" />
        <path
           id="XMLID_105_"
           class="st1"
           d="M92.4 159.8l-16.6-28.7L35.9 200h34.2l22.8-39.4z" />
        <path
           id="XMLID_104_"
           class="st0"
           d="M122.5 90.6L70.1 0H0l57.8 100L0 200h70.1l52.4-90.6c3.3-5.8 3.3-13 0-18.8z" />
        <path
           id="XMLID_103_"
           class="st2"
           d="M57.8 100l18 31.1L35.9 200H0z" />
        <path
           id="XMLID_102_"
           class="st0"
           d="M122.5 90.6L70.1 0H0l57.8 100L0 200h70.1l52.4-90.6c3.3-5.8 3.3-13 0-18.8z" />
        <path
           id="XMLID_101_"
           class="st3"
           d="M70.1 198.4H36.8l-.9 1.6h34.2l22.8-39.4-.5-.8z" />
        <path
           id="XMLID_100_"
           class="st0"
           d="M122.5 90.6L70.1 0H0l57.8 100L0 200h70.1l52.4-90.6c3.3-5.8 3.3-13 0-18.8z" />
        <path
           id="XMLID_99_"
           class="st4"
           d="M.9 198.4L0 200h35.9l.9-1.6z" />
        <path
           id="XMLID_98_"
           class="st0"
           d="M122.5 90.6L70.1 0H0l57.8 100L0 200h70.1l52.4-90.6c3.3-5.8 3.3-13 0-18.8z" />
        <path
           id="XMLID_96_"
           class="st5"
           d="M0 200h.9l57.4-99.2-.5-.8z" />
        <path
           id="XMLID_94_"
           class="st0"
           d="M122.5 90.6L70.1 0H0l57.8 100L0 200h70.1l52.4-90.6c3.3-5.8 3.3-13 0-18.8z" />
        <radialGradient
           id="XMLID_126_"
           cx="92.62"
           cy="2707.501"
           r="69.162"
           gradientTransform="matrix(1 0 0 -1 0 2867.46)"
           gradientUnits="userSpaceOnUse">
          <stop
             offset="0"
             stop-color="#BF360C"
             stop-opacity=".2"
             id="stop20" />
          <stop
             offset="1"
             stop-color="#BF360C"
             stop-opacity=".02"
             id="stop22" />
        </radialGradient>
        <path
           id="XMLID_92_"
           class="st6"
           d="M92.9 160.6l-17.1-29.5-4.2 7.2z" />
        <path
           id="XMLID_90_"
           class="st0"
           d="M122.5 90.6L70.1 0H0l57.8 100L0 200h70.1l52.4-90.6c3.3-5.8 3.3-13 0-18.8z" />
        <radialGradient
           id="XMLID_127_"
           cx="92.423"
           cy="2707.063"
           r="69.723"
           gradientTransform="matrix(1 0 0 -1 0 2867.46)"
           gradientUnits="userSpaceOnUse">
          <stop
             offset="0"
             stop-color="#263238"
             stop-opacity=".2"
             id="stop27" />
          <stop
             offset="1"
             stop-color="#263238"
             stop-opacity=".02"
             id="stop29" />
        </radialGradient>
        <path
           id="XMLID_89_"
           class="st7"
           d="M71.6 138.3l4.2-7.2-18-31.1-8.5 14.8z" />
        <path
           id="XMLID_88_"
           class="st0"
           d="M122.5 90.6L70.1 0H0l57.8 100L0 200h70.1l52.4-90.6c3.3-5.8 3.3-13 0-18.8z" />
        <g
           id="XMLID_85_">
          <g
             id="XMLID_86_">
            <path
               id="XMLID_87_"
               class="st8"
               d="M35.9 0H0l92.9 160.6 17.9-31.1z" />
          </g>
        </g>
        <path
           id="XMLID_84_"
           class="st0"
           d="M122.5 90.6L70.1 0H0l57.8 100L0 200h70.1l52.4-90.6c3.3-5.8 3.3-13 0-18.8z" />
        <path
           id="XMLID_83_"
           class="st9"
           d="M122.5 109.4c3.4-5.8 3.4-13 0-18.8L70.1 0H35.9l74.9 129.5 11.7-20.1z" />
        <path
           id="XMLID_82_"
           class="st0"
           d="M122.5 90.6L70.1 0H0l57.8 100L0 200h70.1l52.4-90.6c3.3-5.8 3.3-13 0-18.8z" />
        <path
           id="XMLID_71_"
           class="st10"
           d="M110.8 129.5l-.4-.8L92.9 159 .9 0H0l92.9 160.6 17.9-31.1z" />
        <path
           id="XMLID_69_"
           class="st0"
           d="M122.5 90.6L70.1 0H0l57.8 100L0 200h70.1l52.4-90.6c3.3-5.8 3.3-13 0-18.8z" />
        <path
           id="XMLID_67_"
           class="st5"
           d="M70.1 1.6l52.4 90.6c1.5 2.7 2.3 5.6 2.5 8.6.1-3.5-.7-7-2.5-10.2L70.1 0H0l.9 1.6h69.2z" />
        <path
           id="XMLID_66_"
           class="st0"
           d="M122.5 90.6L70.1 0H0l57.8 100L0 200h70.1l52.4-90.6c3.3-5.8 3.3-13 0-18.8z" />
        <path
           id="XMLID_65_"
           class="st11"
           d="M110.8 129.5l11.6-20.1c1.8-3.1 2.6-6.7 2.5-10.2-.1 3-.9 5.9-2.5 8.6l-12.1 20.9.5.8z" />
        <path
           id="XMLID_64_"
           class="st0"
           d="M122.5 90.6L70.1 0H0l57.8 100L0 200h70.1l52.4-90.6c3.3-5.8 3.3-13 0-18.8z" />
        <radialGradient
           id="XMLID_128_"
           cx="-1.563"
           cy="2865.898"
           r="209.922"
           gradientTransform="matrix(1 0 0 -1 0 2867.46)"
           gradientUnits="userSpaceOnUse">
          <stop
             offset="0"
             stop-color="#FFF"
             stop-opacity=".1"
             id="stop46" />
          <stop
             offset="1"
             stop-color="#FFF"
             stop-opacity="0"
             id="stop48" />
        </radialGradient>
        <path
           id="XMLID_63_"
           class="st12"
           d="M122.5 90.6L70.1 0H0l57.8 100L0 200h70.1l52.4-90.6c3.3-5.8 3.3-13 0-18.8z" />
      </g>
    </g>
  </g>
  <g
     id="g3456"
     transform="translate(47.134831,2.3567416)">
    <path
       id="XMLID_2_"
       class="st13"
       d="m 275.5,51.8 c 0,10.9 -3.2,19.7 -9.7,26.1 -7.4,7.7 -17,11.6 -28.8,11.6 -11.3,0 -20.9,-3.9 -28.8,-11.8 -7.9,-7.8 -11.9,-17.6 -11.9,-29.1 0,-11.5 4,-21.3 11.9,-29.1 7.9,-7.8 17.5,-11.8 28.8,-11.8 5.6,0 11,1.1 16.1,3.3 5.1,2.2 9.2,5.1 12.2,8.8 l -6.9,6.9 c -5.2,-6.2 -12.3,-9.3 -21.4,-9.3 -8.2,0 -15.4,2.9 -21.4,8.7 -6,5.8 -9,13.3 -9,22.6 0,9.3 3,16.8 9,22.6 6,5.8 13.1,8.7 21.4,8.7 8.8,0 16,-2.9 21.9,-8.8 3.8,-3.8 6,-9.1 6.6,-15.9 l -28.5,0 0,-9.4 38,0 c 0.3,2.1 0.5,4 0.5,5.9 z"
       inkscape:connector-curvature="0"
       style="fill:#767676" />
    <path
       id="XMLID_4_"
       class="st13"
       d="m 285.4,87.8 0,-78.3 24,0 c 12,0 21.7,3.6 28.9,10.9 7.2,7.3 10.8,16.7 10.8,28.3 0,11.6 -3.6,21 -10.8,28.3 -7.2,7.3 -16.8,10.9 -28.9,10.9 l -24,0 z m 10.1,-9.6 13.9,0 c 9,0 16.2,-2.6 21.5,-7.8 5.3,-5.2 7.9,-12.4 7.9,-21.8 0,-9.3 -2.6,-16.5 -7.9,-21.7 -5.3,-5.2 -12.5,-7.8 -21.5,-7.8 l -13.9,0 0,59.1 z"
       inkscape:connector-curvature="0"
       style="fill:#767676" />
    <path
       id="XMLID_8_"
       class="st13"
       d="m 434.5,51.8 c 0,10.9 -3.2,19.7 -9.7,26.1 -7.4,7.7 -17,11.6 -28.8,11.6 -11.3,0 -20.9,-3.9 -28.8,-11.8 -7.9,-7.8 -11.9,-17.6 -11.9,-29.1 0,-11.5 4,-21.3 11.9,-29.1 7.9,-7.8 17.5,-11.8 28.8,-11.8 5.6,0 11,1.1 16.1,3.3 5.1,2.2 9.2,5.1 12.2,8.8 l -6.9,6.9 c -5.2,-6.2 -12.3,-9.3 -21.4,-9.3 -8.2,0 -15.4,2.9 -21.4,8.7 -6,5.8 -9,13.3 -9,22.6 0,9.3 3,16.8 9,22.6 6,5.8 13.1,8.7 21.4,8.7 8.8,0 16,-2.9 21.9,-8.8 3.8,-3.8 6,-9.1 6.6,-15.9 l -28.5,0 0,-9.4 38,0 c 0.3,2.1 0.5,4 0.5,5.9 z"
       inkscape:connector-curvature="0"
       style="fill:#767676" />
  </g>
  <text
     xml:space="preserve"
     style="font-style:normal;font-weight:normal;font-size:90px;line-height:125%;font-family:sans-serif;letter-spacing:0px;word-spacing:0px;fill:#000000;fill-opacity:1;stroke:none;stroke-width:1px;stroke-linecap:butt;stroke-linejoin:miter;stroke-opacity:1"
     x="242.74438"
     y="152.86517"
     id="text3444"
     sodipodi:linespacing="125%"><tspan
       sodipodi:role="line"
       id="tspan3446"
       x="242.74438"
       y="152.86517" /></text>
  <text
     xml:space="preserve"
     style="font-style:normal;font-weight:500;font-size:90px;line-height:125%;font-family:Roboto;letter-spacing:0px;word-spacing:0px;fill:#000000;fill-opacity:1;stroke:none;stroke-width:1px;stroke-linecap:butt;stroke-linejoin:miter;stroke-opacity:1;-inkscape-font-specification:'Roboto Medium';font-stretch:normal;font-variant:normal;"
     x="235.67416"
     y="197.64326"
     id="text3448"
     sodipodi:linespacing="125%"><tspan
       sodipodi:role="line"
       id="tspan3450"
       x="235.67416"
       y="197.64326" /></text>
  <text
     xml:space="preserve"
     style="font-style:normal;font-variant:normal;font-weight:normal;font-stretch:normal;font-size:100px;line-height:125%;font-family:sans-serif;-inkscape-font-specification:sans-serif;letter-spacing:0px;word-spacing:0px;fill:#666666;fill-opacity:1;stroke:none;stroke-width:1px;stroke-linecap:butt;stroke-linejoin:miter;stroke-opacity:1"
     x="155.54494"
     y="192.92978"
     id="text3452"
     sodipodi:linespacing="125%"><tspan
       sodipodi:role="line"
       id="tspan3454"
       x="155.54494"
       y="192.92978">FOUMBAN</tspan></text>
</svg>
